<svg class="h-48 mx-auto mb-6 lg:mb-0 lg:h-32" xmlns="http://www.w3.org/2000/svg" width="169.381" height="162.259" viewBox="0 0 169.381 162.259">
  <g id="undraw_laravel_and_vue_59tp" transform="translate(0 0)">
    <path id="Path_7" data-name="Path 7" d="M339.91,97.366c-8.816-34.666-39.277-59.689-75.032-60.693-18.9-.531-38.793,5.739-53.275,27.676-25.888,39.216,1.591,66.316,20.748,79.193a119.874,119.874,0,0,1,24.777,22.27c12.94,15.356,37.834,34.437,67.482,4.539C346.1,148.682,345.782,120.457,339.91,97.366Z" transform="translate(-194.654 -36.643)" fill="#f2f2f2"/>
    <path id="Path_8" data-name="Path 8" d="M337.685,711.964c0,8.509-37.132,24.338-83.905,24.338S168.5,721.455,168.5,712.946s38.506-7.458,85.279-7.458S337.685,703.455,337.685,711.964Z" transform="translate(-168.5 -574.043)" fill="#3f3d56"/>
    <path id="Path_9" data-name="Path 9" d="M337.685,711.964c0,8.509-37.132,24.338-83.905,24.338S168.5,721.455,168.5,712.946s38.506-7.458,85.279-7.458S337.685,703.455,337.685,711.964Z" transform="translate(-168.5 -574.043)" opacity="0.1"/>
    <ellipse id="Ellipse_2" data-name="Ellipse 2" cx="84.691" cy="15.407" rx="84.691" ry="15.407" transform="translate(0 123.398)" fill="#3f3d56"/>
    <path id="Path_10" data-name="Path 10" d="M594.859,440.238v41.206l6.892,11.233.525.854h27.2l.549-53.293Z" transform="translate(-478.106 -353.832)" fill="#2f2e41"/>
    <path id="Path_11" data-name="Path 11" d="M594.859,440.238v41.206l6.892,11.233.423-52.438Z" transform="translate(-478.106 -353.832)" opacity="0.1"/>
    <path id="Path_12" data-name="Path 12" d="M116.357,434.639v41.206l-6.892,11.233-.525.854h-27.2l-.549-53.293Z" transform="translate(-65.259 -349.332)" fill="#2f2e41"/>
    <path id="Path_13" data-name="Path 13" d="M230.391,434.639v41.206L223.5,487.077l-.423-52.438Z" transform="translate(-179.292 -349.332)" opacity="0.1"/>
    <path id="Path_14" data-name="Path 14" d="M210.791,396.693v2.472H63v-3.571l13.735-7.142H198.7Z" transform="translate(-50.635 -312.21)" fill="#2f2e41"/>
    <path id="Path_15" data-name="Path 15" d="M210.791,425.941v2.472H63v-3.571Z" transform="translate(-50.635 -341.458)" opacity="0.1"/>
    <path id="Path_16" data-name="Path 16" d="M132.524,485.549h-6.593l-2.747-1.923h12.362Z" transform="translate(-99.007 -388.705)" opacity="0.1"/>
    <path id="Path_17" data-name="Path 17" d="M132.524,526.138h-6.593l-2.747-1.923h12.362Z" transform="translate(-99.007 -421.327)" opacity="0.1"/>
    <path id="Path_18" data-name="Path 18" d="M132.524,583.523h-6.593l-2.747-1.923h12.362Z" transform="translate(-99.007 -467.449)" opacity="0.1"/>
    <path id="Path_19" data-name="Path 19" d="M132.524,640.908h-6.593l-2.747-1.923h12.362Z" transform="translate(-99.007 -513.571)" opacity="0.1"/>
    <path id="Path_20" data-name="Path 20" d="M672.061,491.148h6.593l2.747-1.923H669.039Z" transform="translate(-537.727 -393.205)" opacity="0.1"/>
    <path id="Path_21" data-name="Path 21" d="M672.061,531.737h6.593l2.747-1.923H669.039Z" transform="translate(-537.727 -425.827)" opacity="0.1"/>
    <path id="Path_22" data-name="Path 22" d="M672.061,589.122h6.593L681.4,587.2H669.039Z" transform="translate(-537.727 -471.949)" opacity="0.1"/>
    <path id="Path_23" data-name="Path 23" d="M672.061,646.506h6.593l2.747-1.923H669.039Z" transform="translate(-537.727 -518.071)" opacity="0.1"/>
    <path id="Path_24" data-name="Path 24" d="M687.151,388.626l-.916,5.85s-4.511,2.4-1.339,2.467,18.115,0,18.115,0,2.89,0-1.692-2.538l-.916-6.132Z" transform="translate(-582.634 -319.259)" fill="#3f3d56"/>
    <path id="Path_25" data-name="Path 25" d="M684.261,396.88a12.477,12.477,0,0,1,1.977-1.309l.916-5.85,13.251.012.916,5.767a12.029,12.029,0,0,1,2.117,1.393c.588-.134,1.232-.633-2.117-2.488l-.916-6.132-13.251.352-.916,5.85S682.448,396.491,684.261,396.88Z" transform="translate(-582.638 -319.259)" opacity="0.1"/>
    <rect id="Rectangle_7" data-name="Rectangle 7" width="59.702" height="41.587" rx="10.695" transform="translate(81.221 28.591)" fill="#3f3d56"/>
    <rect id="Rectangle_8" data-name="Rectangle 8" width="55.684" height="31.155" transform="translate(83.23 30.811)" fill="#f2f2f2"/>
    <circle id="Ellipse_3" data-name="Ellipse 3" cx="0.352" cy="0.352" r="0.352" transform="translate(110.72 29.472)" fill="#f2f2f2"/>
    <path id="Path_26" data-name="Path 26" d="M642.026,364.931v3.646a2.1,2.1,0,0,1-2.1,2.1h-55.5a2.1,2.1,0,0,1-2.1-2.1v-3.645Z" transform="translate(-501.103 -300.497)" fill="#3f3d56"/>
    <circle id="Ellipse_4" data-name="Ellipse 4" cx="1.339" cy="1.339" r="1.339" transform="translate(109.733 65.984)" fill="#f2f2f2"/>
    <path id="Path_27" data-name="Path 27" d="M399.992,404.805v.705H362.071v-.564l.052-.141.935-2.537h36.159Z" transform="translate(-291.007 -323.315)" fill="#3f3d56"/>
    <path id="Path_28" data-name="Path 28" d="M754.539,438.385c-.069.3-.33.607-.919.9-2.115,1.057-6.414-.282-6.414-.282s-3.313-.564-3.313-2.044a2.642,2.642,0,0,1,.29-.173c.889-.47,3.837-1.631,9.063.049a2.18,2.18,0,0,1,.994.651,1.039,1.039,0,0,1,.3.9Z" transform="translate(-630.96 -357.584)" fill="#3f3d56"/>
    <path id="Path_29" data-name="Path 29" d="M755.728,438.385c-2.588.992-4.9,1.066-7.263-.579a5.2,5.2,0,0,0-3.093-1.019c.889-.47,3.837-1.631,9.063.049a2.179,2.179,0,0,1,.993.651,1.039,1.039,0,0,1,.3.9Z" transform="translate(-632.149 -357.584)" opacity="0.1"/>
    <ellipse id="Ellipse_5" data-name="Ellipse 5" cx="0.916" cy="0.282" rx="0.916" ry="0.282" transform="translate(119.417 79.658)" fill="#f2f2f2"/>
    <path id="Path_30" data-name="Path 30" d="M399.992,415.2v.7H362.071v-.564l.052-.141Z" transform="translate(-291.007 -333.705)" opacity="0.1"/>
    <path id="Path_31" data-name="Path 31" d="M663.087,213.635c-.3-.3-4.139-5.136-4.787-5.934-.7-.8-1-.648-1.446-.6s-5.286.9-5.834.947c-.548.1-.9.3-.548.8.3.449,3.491,4.937,4.189,5.984l-12.716,3.042-10.073-16.9c-.4-.6-.5-.8-1.4-.748s-7.929.648-8.427.648c-.5.05-1.047.249-.549,1.446s8.477,18.35,8.677,18.849a1.714,1.714,0,0,0,2.144,1c1.4-.349,6.183-1.6,8.826-2.294,1.4,2.493,4.189,7.579,4.737,8.327.7,1,1.2.8,2.244.5.848-.249,13.065-4.637,13.613-4.887s.9-.4.5-.947c-.3-.4-3.491-4.737-5.186-6.981,1.147-.3,5.286-1.4,5.734-1.546.5-.15.6-.4.3-.7ZM640,218.372c-.15.05-7.28,1.745-7.629,1.845-.4.1-.4.05-.4-.1-.1-.15-8.477-17.5-8.627-17.7-.1-.2-.1-.4,0-.4s6.732-.6,6.931-.6c.249,0,.2.05.3.2,0,0,9.325,16.106,9.474,16.356C640.248,218.222,640.149,218.322,640,218.372Zm20.046,3.74c.1.2.249.3-.15.4-.349.15-12.017,4.089-12.267,4.189s-.4.15-.7-.3-4.089-6.981-4.089-6.981l12.416-3.241c.3-.1.4-.15.6.15.2.349,4.089,5.635,4.189,5.784Zm.8-8.776c-.3.05-4.837,1.2-4.837,1.2l-3.74-5.086c-.1-.15-.2-.3.05-.349s4.488-.8,4.687-.848.349-.1.6.249c.249.3,3.441,4.388,3.59,4.538S661.142,213.285,660.843,213.335Z" transform="translate(-532.431 -168.109)" fill="#fb503b"/>
    <circle id="Ellipse_6" data-name="Ellipse 6" cx="7.507" cy="7.507" r="7.507" transform="translate(69.949 23.091)" fill="#ffb9b9"/>
    <path id="Path_32" data-name="Path 32" d="M534.957,207.616v11.853H547.2s-1.58-9.877-.79-12.84Z" transform="translate(-463.033 -173.265)" fill="#ffb9b9"/>
    <path id="Path_33" data-name="Path 33" d="M496.157,252.992s-11.655-5.729-11.655-6.124-1.185-2.963-1.975-2.963-7.507-2.173-11.26.988l-.4,2.568-14.421,9.482,3.951,14.421s2.568,2.766,1.778,4.741.593,12.05.593,12.05l31.014-.988V273.735a31.336,31.336,0,0,1,1.58-4.148c.593-.988,0-3.951,0-3.951l4.741-5.926S499.516,254.178,496.157,252.992Z" transform="translate(-399.935 -202.641)" fill="#d0cde1"/>
    <path id="Path_34" data-name="Path 34" d="M443.807,318.156l.889-4.84s-5.136,22.322-4.544,24.891,4.939,6.519,5.531,6.716,6.124-16.989,6.124-16.989Z" transform="translate(-386.797 -259.014)" opacity="0.1"/>
    <path id="Path_35" data-name="Path 35" d="M441.008,310.3l-3.358.593s-5.136,22.323-4.544,24.891,4.939,6.519,5.531,6.716,6.124-16.989,6.124-16.989Z" transform="translate(-381.134 -256.587)" fill="#d0cde1"/>
    <path id="Path_36" data-name="Path 36" d="M642.045,330.667l1.679-3.259s2.371,22.322.79,24.5-7.832,2.986-7.832,2.986l-.07-16.222Z" transform="translate(-544.736 -270.339)" opacity="0.1"/>
    <path id="Path_37" data-name="Path 37" d="M647.2,314.323l2.568,2.568s2.371,22.322.79,24.5-7.832,2.986-7.832,2.986l-.07-16.222Z" transform="translate(-549.59 -259.823)" fill="#d0cde1"/>
    <path id="Path_38" data-name="Path 38" d="M442.293,485.11s-5.729-2.173-6.716,1.975,2.371,22.718,2.371,22.718,2.173,14.026,3.556,14.421,7.507.593,8.494-1.185-2.963-19.952-2.963-19.952l22.915-.4s-1.383,15.8-2.173,17.186-.79,6.124,0,6.124,9.482-.4,10.075-1.58,3.951-27.854,3.951-27.854,2.766-9.285-.4-8.692S442.293,485.11,442.293,485.11Z" transform="translate(-383.011 -396.632)" fill="#3f3d56"/>
    <path id="Path_39" data-name="Path 39" d="M611.1,681.188s1.975-1.383,2.963,0,1.383,2.963-2.963,5.334-7.7,1.778-7.7,1.383v-5.729Z" transform="translate(-518.041 -554.189)" fill="#2f2e41"/>
    <path id="Path_40" data-name="Path 40" d="M453.762,678.169s-1.975-1.383-2.963,0-1.383,2.963,2.963,5.334,7.7,1.778,7.7,1.383v-5.729Z" transform="translate(-394.875 -551.763)" fill="#2f2e41"/>
    <path id="Path_41" data-name="Path 41" d="M528.434,144.3a6.35,6.35,0,0,0-2.2.314,8.527,8.527,0,0,0-1.571.831l-3.314,2.061a1.552,1.552,0,0,0-.935,1.447l-.414,3.1a4.037,4.037,0,0,0,.149,2.327,6.421,6.421,0,0,0,1.309,1.468,5.389,5.389,0,0,1,1.42,2.76c.237,1.295.085,2.854,1.11,3.681a3.482,3.482,0,0,0,2.023.574,30.183,30.183,0,0,0,5.829-.224,2.319,2.319,0,0,0,.881-.247,2.42,2.42,0,0,0,.773-.919,8.236,8.236,0,0,0,1.495-4.062,4.341,4.341,0,0,1,.158-2.133,8.335,8.335,0,0,1,.6-.774,4.277,4.277,0,0,0,.583-2.118c.224-2.357-.01-4.151-1.747-5.811A9,9,0,0,0,528.434,144.3Z" transform="translate(-450.929 -123.164)" fill="#2f2e41"/>
    <path id="Path_42" data-name="Path 42" d="M273.939,569.7l-6.593,33.514h3.3l6.318-32.965Z" transform="translate(-214.874 -457.887)" fill="#2f2e41"/>
    <path id="Path_43" data-name="Path 43" d="M408.708,579.2l4.121,38.459h2.747L413.1,578.1Z" transform="translate(-328.491 -464.637)" fill="#2f2e41"/>
    <path id="Path_44" data-name="Path 44" d="M466.093,575.851l5.769,25.548h2.747l-5.494-26.1Z" transform="translate(-374.613 -462.387)" fill="#2f2e41"/>
    <path id="Path_45" data-name="Path 45" d="M350.748,578.1l-.824,20.328h2.2L353.77,578.1Z" transform="translate(-281.244 -464.637)" fill="#2f2e41"/>
    <path id="Path_46" data-name="Path 46" d="M442.535,462.91s-4.4-29.393,7.966-30.218,29.943,0,29.943,0,10.164-.824,7.142,30.218c0,0,2.747,9.065-21.976,8.241S442.535,462.91,442.535,462.91Z" transform="translate(-388.14 -354.665)" fill="#22a483"/>
    <path id="Path_47" data-name="Path 47" d="M963.759,601.616c0,5.126-3.047,6.915-6.806,6.915s-6.806-1.79-6.806-6.915,6.806-11.646,6.806-11.646S963.759,596.49,963.759,601.616Z" transform="translate(-796.733 -481.368)" fill="#22a483"/>
    <path id="Path_48" data-name="Path 48" d="M803.928,566.815l2.9-5.307-2.89,4.634.031-1.929,2-3.84-1.991,3.329.056-3.469,2.141-3.057-2.132,2.511.035-6.361-.212,8.06-2.168-3.318,2.142,4-.2,3.874-.006-.1-2.509-3.506,2.5,3.869-.025.485,0,.007,0,.04-.515,5.17h.688l.082-.418,2.5-3.86-2.49,3.478Z" transform="translate(-643.887 -444.725)" fill="#3f3d56"/>
    <path id="Path_49" data-name="Path 49" d="M796.656,656.015h-8.114l-2.1-11.852H798.3Z" transform="translate(-632.089 -517.733)" fill="#2f2e41"/>
    <rect id="Rectangle_9" data-name="Rectangle 9" width="16.879" height="19.789" transform="translate(28.459 58.155)" fill="#3f3d56"/>
    <rect id="Rectangle_10" data-name="Rectangle 10" width="11.641" height="13.648" transform="translate(31.078 61.226)" fill="#f2f2f2"/>
    <path id="Path_50" data-name="Path 50" d="M336.643,363.357l-1.182,2.047-1.182-2.047h-3.936l5.118,8.866,5.118-8.866Z" transform="translate(-298.578 -299.233)" fill="#4dba87"/>
    <path id="Path_51" data-name="Path 51" d="M345.027,363.357l-1.182,2.047-1.182-2.047h-1.889l3.071,5.319,3.071-5.319Z" transform="translate(-306.962 -299.233)" fill="#435466"/>
  </g>
</svg>
